<?xml version="1.0" encoding="UTF-8" standalone="no"?>
<svg width="181px" height="28px" viewBox="0 0 181 28" version="1.1" xmlns="http://www.w3.org/2000/svg" xmlns:xlink="http://www.w3.org/1999/xlink">
    <!-- Generator: Sketch 50 (54983) - http://www.bohemiancoding.com/sketch -->
    <title>BanBan-logo-done</title>
    <desc>Created with Sketch.</desc>
    <defs></defs>
    <g id="Page-1" stroke="none" stroke-width="1" fill="none" fill-rule="evenodd">
        <g id="启动页" transform="translate(-90.000000, -705.000000)">
            <g id="BanBan-logo-done" transform="translate(90.000000, 705.000000)">
                <path d="M36.4517318,26 C34.9768239,26 33.7767133,24.8206801 33.7767133,23.3713235 C33.7767133,21.9219669 34.9768239,20.7426471 36.4517318,20.7426471 L41.0476566,20.7426471 C41.7263817,20.7426471 42.3751953,20.4723713 42.8751805,19.9815257 C43.3749226,19.4904412 43.6499632,18.8526287 43.6499632,18.1856618 C43.6499632,17.5186949 43.3749226,16.8811213 42.8751805,16.3900368 C42.3754385,15.8989522 41.7263817,15.6286765 41.0476566,15.6286765 L27.5268976,15.6286765 C26.0517465,15.6286765 24.8518791,14.4495956 24.8518791,13 C24.8518791,11.5506434 26.0517465,10.3713235 27.5268976,10.3713235 L32.1473839,10.3713235 C32.8163817,10.3713235 33.4824613,10.0938787 33.9744215,9.60996324 C34.4741636,9.11935662 34.7494473,8.48154412 34.7494473,7.81433824 C34.7494473,7.14737132 34.4741636,6.50955882 33.9744215,6.01871324 C33.4751658,5.52786765 32.8263522,5.25735294 32.1473839,5.25735294 L18.6750184,5.25735294 C17.1998674,5.25735294 16,4.07827206 16,2.62867647 C16,1.17931985 17.1998674,0 18.6750184,0 L32.1473839,0 C34.2599189,0 36.2540236,0.816084559 37.7615181,2.29746324 C39.2692557,3.77931985 40.0994842,5.73840074 40.0994842,7.81433824 C40.0994842,8.45693015 40.0141268,9.11744485 39.8463301,9.77748162 L39.6953132,10.3713235 L41.0476566,10.3713235 C43.1604348,10.3713235 45.1542962,11.1874081 46.6617907,12.6687868 C48.1697716,14.1504044 49,16.1094853 49,18.1856618 C49,20.2618382 48.1697716,22.2211581 46.6617907,23.7025368 C45.1542962,25.1841544 43.160678,26 41.0476566,26 L36.4517318,26 Z" id="Fill-1" fill="#19D313"></path>
                <path d="M2.59656652,5 C1.16491416,5 0,3.87840909 0,2.5 C0,1.12159091 1.16491416,0 2.59656652,0 L8.40343348,0 C9.83532189,0 11,1.12159091 11,2.5 C11,3.87840909 9.83532189,5 8.40343348,5 L2.59656652,5 Z" id="Path" fill="#ADE16F"></path>
                <path d="M10.9718566,15.3714063 C9.54326987,15.3714063 8.38085017,14.2498153 8.38085017,12.8714063 C8.38085017,11.4929972 9.54326987,10.3714063 10.9718566,10.3714063 L16.7898437,10.3714063 C18.218666,10.3714063 19.3808502,11.4929972 19.3808502,12.8714063 C19.3808502,14.2498153 18.218666,15.3714063 16.7898437,15.3714063 L10.9718566,15.3714063 Z" id="Fill-6" fill="#ADE16F"></path>
                <path d="M19.5965665,26 C18.1649142,26 17,24.8784091 17,23.5 C17,22.1215909 18.1649142,21 19.5965665,21 L25.4034335,21 C26.8353219,21 28,22.1215909 28,23.5 C28,24.8784091 26.8353219,26 25.4034335,26 L19.5965665,26 Z" id="Fill-8" fill="#ADE16F"></path>
                <path d="M74.6927021,27.5706377 C74.3018044,27.5706377 74.0086312,27.2524487 74.0086312,26.8853075 L74.0086312,25.3188385 C74.0086312,24.9272212 74.3262355,24.6335083 74.6927021,24.6335083 L76.3540172,24.6335083 C76.7449148,24.6335083 77.0380881,24.3153193 77.0380881,23.9481781 L77.0380881,15.2591704 C77.0380881,14.8675531 76.7204837,14.5738402 76.3540172,14.5738402 L74.6927021,14.5738402 C74.3018044,14.5738402 74.0086312,14.2556512 74.0086312,13.88851 L74.0086312,12.322041 C74.0086312,11.9304237 74.3262355,11.6367108 74.6927021,11.6367108 L76.3540172,11.6367108 C76.7449148,11.6367108 77.0380881,11.3185218 77.0380881,10.9513806 L77.0380881,4.1225548 C77.0380881,3.73093755 76.7204837,3.43722461 76.3540172,3.43722461 L74.6927021,3.43722461 C74.3018044,3.43722461 74.0086312,3.11903559 74.0086312,2.75189442 L74.0086312,1.18542542 C74.0086312,0.793808167 74.3262355,0.500095229 74.6927021,0.500095229 L82.3640688,0.500095229 C82.7549665,0.500095229 83.0481397,0.818284245 83.0481397,1.18542542 L83.0481397,2.75189442 C83.0481397,3.14351167 82.7305354,3.43722461 82.3640688,3.43722461 L80.7027537,3.43722461 C80.3118561,3.43722461 80.0186828,3.75541363 80.0186828,4.1225548 L80.0186828,10.9024285 C80.0186828,11.2940457 80.3362872,11.5877586 80.7027537,11.5877586 L82.3640688,11.5877586 C82.7549665,11.5877586 83.0481397,11.9059477 83.0481397,12.2730888 L83.0481397,13.8395578 C83.0481397,14.2311751 82.7305354,14.524888 82.3640688,14.524888 L80.7027537,14.524888 C80.3118561,14.524888 80.0186828,14.843077 80.0186828,15.2102182 L80.0186828,23.899226 C80.0186828,24.2908432 80.3362872,24.5845561 80.7027537,24.5845561 L82.3640688,24.5845561 C82.7549665,24.5845561 83.0481397,24.9027452 83.0481397,25.2698863 L83.0481397,26.8363553 C83.0481397,27.2279726 82.7305354,27.5216855 82.3640688,27.5216855 L74.6927021,27.5216855 L74.6927021,27.5706377 Z M63.6498429,5.29740655 C63.2589453,5.29740655 62.965772,4.97921753 62.965772,4.61207636 L62.965772,3.04560736 C62.965772,2.65399011 63.2833764,2.36027717 63.6498429,2.36027717 L65.9219356,2.36027717 C66.3128333,2.36027717 66.6060066,2.04208815 66.6060066,1.67494698 L66.6060066,1.16094934 C66.6060066,0.769332089 66.9236109,0.475619151 67.2900775,0.475619151 L68.8536682,0.475619151 C69.2445658,0.475619151 69.5377391,0.793808167 69.5377391,1.16094934 L69.5377391,1.67494698 C69.5377391,2.06656423 69.8553434,2.36027717 70.22181,2.36027717 L72.4694716,2.36027717 C72.8603693,2.36027717 73.1535425,2.67846619 73.1535425,3.04560736 L73.1535425,4.61207636 C73.1535425,5.00369361 72.8603693,5.29740655 72.4939027,5.29740655 C72.1274361,5.29740655 71.8342629,5.61559557 71.8342629,5.98273674 L71.8342629,13.6437492 C71.8342629,14.0353665 71.8098318,14.6472684 71.7854007,15.0388857 C71.7854007,15.0388857 71.638814,17.2417327 71.2479164,18.6613452 C70.9791742,19.7138166 70.4172588,21.0355248 69.5866013,22.6264699 C70.5638455,23.7278934 71.638814,24.4376997 72.8115071,24.8048408 L72.8115071,26.8853075 C72.8115071,27.2769247 72.5183338,27.4727334 72.1518672,27.350353 C72.1518672,27.350353 70.3683966,26.7139749 69.6110324,26.1999773 C69.0246859,25.8083601 68.4627705,25.3188385 67.9497173,24.7558887 C66.5815755,26.1510251 64.9446915,27.0811161 63.0634964,27.5706377 L63.0634964,25.490171 C63.0634964,25.0985538 63.3322386,24.6579844 63.674274,24.4866518 C63.674274,24.4866518 65.4088825,23.6299891 66.3616955,22.6019938 C65.4577447,20.8886683 64.8713982,19.2732472 64.602656,17.8046825 C64.3827761,16.5074504 64.2606206,15.2102182 64.2606206,13.9374621 L64.2606206,7.89187084 C64.2606206,7.50025358 64.5782249,7.20654065 64.9446915,7.20654065 L66.0929534,7.20654065 C66.483851,7.20654065 66.7770243,7.52472966 66.7770243,7.89187084 L66.7770243,12.64023 C66.7770243,13.0318473 66.8014554,13.6437492 66.8258865,14.0353665 C66.8258865,14.0353665 67.167922,18.1718237 67.9741484,20.1054338 C68.8048059,17.8781107 69.2201347,15.9445006 69.2201347,14.3535555 L69.2201347,6.00721282 C69.2201347,5.61559557 68.9025304,5.32188263 68.5360638,5.32188263 L63.6498429,5.32188263 L63.6498429,5.29740655 Z M54.3904544,27.5706377 C53.9995567,27.5706377 53.7063835,27.2524487 53.7063835,26.8853075 L53.7063835,25.3188385 C53.7063835,24.9272212 54.0239879,24.6335083 54.3904544,24.6335083 L55.6608718,24.6335083 C56.0517695,24.6335083 56.3449428,24.3153193 56.3449428,23.9481781 L56.3449428,15.2591704 C56.3449428,14.8675531 56.0273384,14.5738402 55.6608718,14.5738402 L54.3904544,14.5738402 C53.9995567,14.5738402 53.7063835,14.2556512 53.7063835,13.88851 L53.7063835,12.322041 C53.7063835,11.9304237 54.0239879,11.6367108 54.3904544,11.6367108 L55.6608718,11.6367108 C56.0517695,11.6367108 56.3449428,11.3185218 56.3449428,10.9513806 L56.3449428,4.1225548 C56.3449428,3.73093755 56.0273384,3.43722461 55.6608718,3.43722461 L54.3904544,3.43722461 C53.9995567,3.43722461 53.7063835,3.11903559 53.7063835,2.75189442 L53.7063835,1.18542542 C53.7063835,0.793808167 54.0239879,0.500095229 54.3904544,0.500095229 L61.3533191,0.500095229 C61.7442168,0.500095229 62.0373901,0.818284245 62.0373901,1.18542542 L62.0373901,2.75189442 C62.0373901,3.14351167 61.7197857,3.43722461 61.3533191,3.43722461 L59.9851773,3.43722461 C59.5942796,3.43722461 59.3011064,3.75541363 59.3011064,4.1225548 L59.3011064,10.9024285 C59.3011064,11.2940457 59.6187107,11.5877586 59.9851773,11.5877586 L61.3533191,11.5877586 C61.7442168,11.5877586 62.0373901,11.9059477 62.0373901,12.2730888 L62.0373901,13.8395578 C62.0373901,14.2311751 61.7197857,14.524888 61.3533191,14.524888 L59.9851773,14.524888 C59.5942796,14.524888 59.3011064,14.843077 59.3011064,15.2102182 L59.3011064,23.899226 C59.3011064,24.2908432 59.6187107,24.5845561 59.9851773,24.5845561 L61.3533191,24.5845561 C61.7442168,24.5845561 62.0373901,24.9027452 62.0373901,25.2698863 L62.0373901,26.8363553 C62.0373901,27.2279726 61.7197857,27.5216855 61.3533191,27.5216855 L54.3904544,27.5216855 L54.3904544,27.5706377 Z" id="Fill-1" fill="#444444"></path>
                <path d="M107.308226,27.5706377 C106.917329,27.5706377 106.624155,27.2524487 106.624155,26.8853075 L106.624155,25.3188385 C106.624155,24.9272212 106.94176,24.6335083 107.308226,24.6335083 L108.969541,24.6335083 C109.360439,24.6335083 109.653612,24.3153193 109.653612,23.9481781 L109.653612,15.2591704 C109.653612,14.8675531 109.336008,14.5738402 108.969541,14.5738402 L107.308226,14.5738402 C106.917329,14.5738402 106.624155,14.2556512 106.624155,13.88851 L106.624155,12.322041 C106.624155,11.9304237 106.94176,11.6367108 107.308226,11.6367108 L108.969541,11.6367108 C109.360439,11.6367108 109.653612,11.3185218 109.653612,10.9513806 L109.653612,4.1225548 C109.653612,3.73093755 109.336008,3.43722461 108.969541,3.43722461 L107.308226,3.43722461 C106.917329,3.43722461 106.624155,3.11903559 106.624155,2.75189442 L106.624155,1.18542542 C106.624155,0.793808167 106.94176,0.500095229 107.308226,0.500095229 L114.979593,0.500095229 C115.370491,0.500095229 115.663664,0.818284245 115.663664,1.18542542 L115.663664,2.75189442 C115.663664,3.14351167 115.34606,3.43722461 114.979593,3.43722461 L113.318278,3.43722461 C112.92738,3.43722461 112.634207,3.75541363 112.634207,4.1225548 L112.634207,10.9024285 C112.634207,11.2940457 112.951811,11.5877586 113.318278,11.5877586 L114.979593,11.5877586 C115.370491,11.5877586 115.663664,11.9059477 115.663664,12.2730888 L115.663664,13.8395578 C115.663664,14.2311751 115.34606,14.524888 114.979593,14.524888 L113.318278,14.524888 C112.92738,14.524888 112.634207,14.843077 112.634207,15.2102182 L112.634207,23.899226 C112.634207,24.2908432 112.951811,24.5845561 113.318278,24.5845561 L114.979593,24.5845561 C115.370491,24.5845561 115.663664,24.9027452 115.663664,25.2698863 L115.663664,26.8363553 C115.663664,27.2279726 115.34606,27.5216855 114.979593,27.5216855 L107.308226,27.5216855 L107.308226,27.5706377 Z M96.2897983,5.29740655 C95.8989006,5.29740655 95.6057273,4.97921753 95.6057273,4.61207636 L95.6057273,3.04560736 C95.6057273,2.65399011 95.9233317,2.36027717 96.2897983,2.36027717 L98.561891,2.36027717 C98.9527886,2.36027717 99.2459619,2.04208815 99.2459619,1.67494698 L99.2459619,1.16094934 C99.2459619,0.769332089 99.5635662,0.475619151 99.9300328,0.475619151 L101.493623,0.475619151 C101.884521,0.475619151 102.177694,0.793808167 102.177694,1.16094934 L102.177694,1.67494698 C102.177694,2.06656423 102.495299,2.36027717 102.861765,2.36027717 L105.109427,2.36027717 C105.500325,2.36027717 105.793498,2.67846619 105.793498,3.04560736 L105.793498,4.61207636 C105.793498,5.00369361 105.500325,5.29740655 105.133858,5.29740655 C104.767391,5.29740655 104.474218,5.61559557 104.474218,5.98273674 L104.474218,13.6437492 C104.474218,14.0353665 104.449787,14.6472684 104.425356,15.0388857 C104.425356,15.0388857 104.278769,17.2417327 103.887872,18.6613452 C103.61913,19.7138166 103.057214,21.0355248 102.226557,22.6264699 C103.203801,23.7278934 104.278769,24.4376997 105.451462,24.8048408 L105.451462,26.8853075 C105.451462,27.2769247 105.158289,27.4727334 104.791823,27.350353 C104.791823,27.350353 103.008352,26.7139749 102.250988,26.1999773 C101.664641,25.8083601 101.102726,25.3188385 100.589673,24.7558887 C99.2215308,26.1510251 97.5846468,27.0811161 95.7034518,27.5706377 L95.7034518,25.490171 C95.7034518,25.0985538 95.9721939,24.6579844 96.3142294,24.4866518 C96.3142294,24.4866518 98.0488378,23.6299891 99.0016508,22.6019938 C98.0977,20.8886683 97.5113535,19.2732472 97.2426113,17.8046825 C97.0227314,16.5074504 96.9005759,15.2102182 96.9005759,13.9374621 L96.9005759,7.89187084 C96.9005759,7.50025358 97.2181802,7.20654065 97.5846468,7.20654065 L98.7329087,7.20654065 C99.1238064,7.20654065 99.4169796,7.52472966 99.4169796,7.89187084 L99.4169796,12.64023 C99.4169796,13.0318473 99.4414107,13.6437492 99.4658418,14.0353665 C99.4658418,14.0353665 99.8078773,18.1718237 100.614104,20.1054338 C101.444761,17.8781107 101.884521,15.9445006 101.884521,14.3535555 L101.884521,6.00721282 C101.884521,5.61559557 101.566917,5.32188263 101.20045,5.32188263 L96.2897983,5.32188263 L96.2897983,5.29740655 Z M87.0304097,27.5706377 C86.6395121,27.5706377 86.3463388,27.2524487 86.3463388,26.8853075 L86.3463388,25.3188385 C86.3463388,24.9272212 86.6639432,24.6335083 87.0304097,24.6335083 L88.3008272,24.6335083 C88.6917248,24.6335083 88.9848981,24.3153193 88.9848981,23.9481781 L88.9848981,15.2591704 C88.9848981,14.8675531 88.6672937,14.5738402 88.3008272,14.5738402 L87.0304097,14.5738402 C86.6395121,14.5738402 86.3463388,14.2556512 86.3463388,13.88851 L86.3463388,12.322041 C86.3463388,11.9304237 86.6639432,11.6367108 87.0304097,11.6367108 L88.3008272,11.6367108 C88.6917248,11.6367108 88.9848981,11.3185218 88.9848981,10.9513806 L88.9848981,4.1225548 C88.9848981,3.73093755 88.6672937,3.43722461 88.3008272,3.43722461 L87.0304097,3.43722461 C86.6395121,3.43722461 86.3463388,3.11903559 86.3463388,2.75189442 L86.3463388,1.18542542 C86.3463388,0.793808167 86.6639432,0.500095229 87.0304097,0.500095229 L93.9932745,0.500095229 C94.3841721,0.500095229 94.6773454,0.818284245 94.6773454,1.18542542 L94.6773454,2.75189442 C94.6773454,3.14351167 94.359741,3.43722461 93.9932745,3.43722461 L92.6251326,3.43722461 C92.234235,3.43722461 91.9410617,3.75541363 91.9410617,4.1225548 L91.9410617,10.9024285 C91.9410617,11.2940457 92.2586661,11.5877586 92.6251326,11.5877586 L93.9932745,11.5877586 C94.3841721,11.5877586 94.6773454,11.9059477 94.6773454,12.2730888 L94.6773454,13.8395578 C94.6773454,14.2311751 94.359741,14.524888 93.9932745,14.524888 L92.6251326,14.524888 C92.234235,14.524888 91.9410617,14.843077 91.9410617,15.2102182 L91.9410617,23.899226 C91.9410617,24.2908432 92.2586661,24.5845561 92.6251326,24.5845561 L93.9932745,24.5845561 C94.3841721,24.5845561 94.6773454,24.9027452 94.6773454,25.2698863 L94.6773454,26.8363553 C94.6773454,27.2279726 94.359741,27.5216855 93.9932745,27.5216855 L87.0304097,27.5216855 L87.0304097,27.5706377 Z" id="Fill-5" fill="#444444"></path>
                <path d="M138.482315,7.94082299 L143.686141,7.94082299 C144.077038,7.94082299 144.687816,7.84291868 145.054282,7.74501437 C145.054282,7.74501437 145.274162,7.67158613 145.274162,7.15758849 L145.274162,5.34635871 C145.274162,4.95474146 145.2253,4.48969597 145.176438,4.26941127 L145.00542,4.09807872 C144.834402,3.95122225 144.638954,3.87779402 144.419074,3.87779402 L139.264111,3.87779402 C138.873213,3.87779402 138.262435,3.95122225 137.895969,4.07360264 C137.895969,4.07360264 137.578365,4.17150695 137.578365,4.70998067 L137.578365,6.49673438 C137.578365,6.88835163 137.627227,7.37787319 137.676089,7.57368182 L137.871538,7.72053829 C138.042555,7.86739476 138.262435,7.94082299 138.482315,7.94082299 L138.482315,7.94082299 Z M137.724951,0.916188558 L144.614523,0.89171248 C145.00542,0.89171248 145.616198,0.940664636 145.982664,0.989616792 C145.982664,0.989616792 146.935477,1.13647326 147.472962,1.6504709 C147.986015,2.13999247 148.230326,2.7763705 148.230326,3.51065284 L148.230326,7.57368182 C148.230326,7.96529907 148.181464,8.57720102 148.083739,8.9443422 C148.083739,8.9443422 147.937153,9.65414846 147.399668,10.14367 C146.911046,10.5842394 146.275838,10.8045241 145.542905,10.8045241 L138.164711,10.8290002 C137.773813,10.8290002 137.163036,10.7800481 136.796569,10.7066198 C136.796569,10.7066198 135.990343,10.5842394 135.47729,10.0947179 C134.939805,9.58072023 134.671063,8.99329435 134.671063,8.33244024 L134.671063,4.29388735 C134.671063,3.90227009 134.719925,3.29036814 134.793219,2.92322697 C134.793219,2.92322697 134.915374,2.16446854 135.428427,1.69942306 C135.965912,1.18542542 136.747707,0.916188558 137.724951,0.916188558 L137.724951,0.916188558 Z M120.378867,14.9165053 C119.987969,14.9165053 119.694796,14.5983163 119.694796,14.2311751 L119.694796,12.6647061 C119.694796,12.2730888 120.012401,11.9793759 120.378867,11.9793759 L144.174763,11.9793759 C144.56566,11.9793759 145.176438,12.028328 145.542905,12.1017563 C145.542905,12.1017563 146.911046,12.322041 147.375237,13.0318473 C147.643979,13.4234645 147.766135,13.88851 147.766135,14.4025076 C147.766135,14.6472684 147.741704,14.9165053 147.692842,15.1612661 L147.326375,17.7067782 C147.277513,18.0739194 147.448531,18.6123931 147.692842,18.906106 C147.692842,18.906106 147.766135,18.9795342 147.912722,19.1753429 C148.157033,19.5669601 148.303619,20.0809578 148.303619,20.766288 L148.303619,23.8013216 C148.303619,24.1929389 148.254757,24.8048408 148.205895,25.171982 C148.205895,25.171982 148.034877,26.3468338 147.448531,26.8608314 C146.886615,27.3748291 146.251407,27.6195898 145.542905,27.6195898 L141.658359,27.6195898 C141.267461,27.6195898 140.974288,27.3014008 140.974288,26.9342596 L140.974288,25.4412189 C140.974288,25.0496016 141.291892,24.7558887 141.658359,24.7558887 L143.515123,24.7558887 C143.906021,24.7558887 144.492367,24.6579844 144.858834,24.535604 C144.858834,24.535604 145.323025,24.3642714 145.323025,23.605513 L145.323025,22.7243742 C145.323025,22.332757 145.2253,21.720855 145.127576,21.3537138 C145.127576,21.3537138 145.00542,20.9131444 144.370212,20.9131444 L124.238982,20.9376205 C123.848084,20.9376205 123.237306,20.9131444 122.846409,20.8886683 C122.846409,20.8886683 120.696471,20.7173358 120.23228,20.2767664 C119.865814,19.9341013 119.890245,19.5669601 119.841383,19.1263907 C119.841383,19.0284864 119.841383,18.4165844 120.036832,17.021448 L122.162338,17.021448 C122.553235,17.021448 122.821978,17.2417327 122.748684,17.5354456 C122.699822,17.8046825 122.699822,18.1718237 122.724253,18.3431562 L122.724253,18.4655366 C122.724253,18.6613452 122.748684,17.5599217 122.699822,17.7312543 C122.65096,17.9025868 122.968564,17.951539 123.261737,17.951539 L143.857158,17.951539 C144.248056,17.951539 144.590091,17.6333499 144.663385,17.2662088 L144.761109,16.6298307 C144.834402,16.2626896 144.883265,15.9200245 144.883265,15.8710723 L144.883265,15.7976441 C144.883265,15.2346943 144.516798,14.9409813 143.759434,14.9409813 L120.378867,14.9165053 Z M119.572641,25.8817883 C119.181743,25.8817883 118.88857,25.5635993 118.88857,25.1964581 L118.88857,23.6299891 C118.88857,23.2383718 119.206174,22.9446589 119.572641,22.9446589 L139.190817,22.9446589 C139.581715,22.9446589 139.874888,23.2628479 139.874888,23.6299891 L139.874888,25.1964581 C139.874888,25.5880754 139.557284,25.8817883 139.190817,25.8817883 L119.572641,25.8817883 Z M118.839708,11.073761 L118.839708,8.72405749 C118.839708,8.33244024 119.10845,7.89187084 119.450485,7.72053829 C119.450485,7.72053829 120.525454,7.18206457 121.038507,6.64359085 C121.527129,6.17854536 121.966889,5.49321518 122.406649,4.5631242 L119.572641,4.5631242 C119.181743,4.5631242 118.88857,4.24493519 118.88857,3.87779402 L118.88857,2.28684894 C118.88857,1.89523168 119.206174,1.60151875 119.572641,1.60151875 L122.675391,1.60151875 C123.066289,1.60151875 123.457186,1.33228189 123.579342,0.989616792 C123.701497,0.646951698 124.092395,0.377714838 124.483293,0.377714838 L126.340057,0.377714838 C126.730954,0.377714838 126.950834,0.646951698 126.828679,0.989616792 C126.706523,1.33228189 126.926403,1.60151875 127.317301,1.60151875 L129.174065,1.60151875 C129.564962,1.60151875 130.17574,1.6504709 130.542206,1.72389914 C130.542206,1.72389914 131.446157,1.87075561 131.983642,2.38475325 C132.545557,2.92322697 132.814299,3.58408108 132.814299,4.41626774 L132.814299,7.32892104 C132.814299,7.72053829 132.765437,8.33244024 132.692144,8.69958142 C132.692144,8.69958142 132.569988,9.45833984 132.056935,9.92338532 C131.568313,10.4129069 130.884242,10.6576677 130.053584,10.6576677 L127.586043,10.6821437 C127.195145,10.6821437 126.901972,10.3639547 126.877541,9.99681356 L126.877541,8.45482063 C126.877541,8.06320338 127.195145,7.76949044 127.561612,7.76949044 L128.172389,7.76949044 C128.563287,7.76949044 129.174065,7.67158613 129.5161,7.54920574 C129.5161,7.54920574 129.833704,7.45130143 129.833704,6.8149234 L129.833704,6.15406929 C129.833704,5.76245204 129.73598,5.17502616 129.613825,4.80788499 C129.613825,4.80788499 129.5161,4.5631242 128.880891,4.5631242 L126.315625,4.58760028 C125.924728,4.58760028 125.509399,4.88131322 125.338381,5.22397832 C125.338381,5.22397832 124.263413,7.69606221 123.359462,8.67510534 C122.626529,9.48281592 121.747009,10.0947179 120.720903,10.4863351 C120.330005,10.6821437 119.694796,10.8534763 118.839708,11.073761 L118.839708,11.073761 Z" id="Fill-9" fill="#444444"></path>
                <path d="M161.936175,10.8290002 C161.936175,11.1471892 162.25378,11.39195 162.620246,11.39195 L177.181185,11.39195 C177.572082,11.39195 177.865255,11.2695696 177.865255,11.1227132 C177.865255,10.9758567 177.767531,10.5597634 177.620944,10.1926222 C177.620944,10.1926222 177.498789,9.84995709 176.86358,9.84995709 L163.744077,9.84995709 C163.35318,9.84995709 162.742402,9.92338532 162.375935,10.0457657 C162.400366,10.0702418 161.936175,10.2170983 161.936175,10.8290002 L161.936175,10.8290002 Z M177.889687,18.8082017 C177.889687,18.4165844 177.596513,18.1228715 177.205616,18.1228715 L162.620246,18.1228715 C162.229349,18.1228715 161.936175,18.3921084 161.936175,18.7102974 C161.936175,19.0284864 161.985038,19.518008 162.0339,19.7872448 L162.204918,19.9341013 C162.302642,20.0075295 162.546953,20.0564817 162.91342,20.0564817 L176.179509,20.0564817 C176.570407,20.0564817 177.181185,19.9585774 177.547651,19.8606731 C177.547651,19.8606731 177.865255,19.7627687 177.865255,19.1998189 L177.889687,18.8082017 Z M161.936175,14.9165053 C161.936175,15.3081225 162.25378,15.6018355 162.620246,15.6018355 L177.205616,15.6018355 C177.596513,15.6018355 177.889687,15.2836464 177.889687,14.9165053 L177.889687,14.5983163 C177.889687,14.206699 177.572082,13.9129861 177.205616,13.9129861 L162.620246,13.9129861 C162.229349,13.9129861 161.936175,14.2311751 161.936175,14.5983163 L161.936175,14.9165053 Z M159.419772,5.126074 C159.028874,5.126074 158.735701,4.80788499 158.735701,4.44074381 L158.735701,2.89875089 C158.735701,2.50713364 159.053305,2.2134207 159.419772,2.2134207 L161.081087,2.2134207 C161.471985,2.2134207 161.765158,1.89523168 161.765158,1.50361443 L161.765158,1.13647326 C161.765158,0.744856011 162.082762,0.451143073 162.449229,0.451143073 L164.012819,0.451143073 C164.403717,0.451143073 164.69689,0.769332089 164.69689,1.13647326 L164.69689,1.50361443 C164.69689,1.89523168 165.014495,2.18894462 165.380961,2.18894462 L173.589812,2.18894462 C173.98071,2.18894462 174.273883,1.87075561 174.273883,1.50361443 L174.273883,1.13647326 C174.273883,0.744856011 174.591488,0.451143073 174.957954,0.451143073 L176.521545,0.451143073 C176.912442,0.451143073 177.205616,0.769332089 177.205616,1.13647326 L177.205616,1.50361443 C177.205616,1.89523168 177.52322,2.18894462 177.889687,2.18894462 L180.161779,2.18894462 C180.552677,2.18894462 180.84585,2.50713364 180.84585,2.87427481 L180.84585,4.41626774 C180.84585,4.80788499 180.528246,5.10159792 180.161779,5.10159792 L171.610893,5.10159792 C171.219995,5.10159792 170.926822,5.41978694 170.926822,5.78692811 L170.926822,6.42330615 C170.926822,6.8149234 171.244426,7.10863633 171.610893,7.10863633 L176.399389,7.10863633 C176.790287,7.10863633 177.401064,7.20654065 177.767531,7.30444496 C177.767531,7.30444496 180.552677,8.13663162 180.552677,10.1926222 L180.552677,19.1263907 C180.552677,19.518008 180.503815,20.1299099 180.430521,20.4970511 C180.430521,20.4970511 180.259504,21.5495225 179.673157,22.0635201 C179.184535,22.5040895 178.378309,22.7243742 177.278909,22.7243742 L162.986713,22.7243742 C162.595815,22.7243742 161.985038,22.6264699 161.618571,22.5285656 C161.618571,22.5285656 159.102167,21.7942832 159.102167,19.9341013 L159.102167,10.8779524 C159.102167,10.4863351 159.199892,9.89890925 159.322047,9.53176807 C159.322047,9.53176807 160.177136,7.10863633 162.327073,7.10863633 L167.237725,7.10863633 C167.628623,7.10863633 167.921796,6.79044732 167.921796,6.42330615 L167.921796,5.78692811 C167.921796,5.39531086 167.604192,5.10159792 167.237725,5.10159792 L159.419772,5.126074 Z M151.552956,27.5216855 L151.552956,25.3433146 C151.552956,24.9516973 151.821698,24.5111279 152.163734,24.3397954 C152.163734,24.3397954 153.702893,23.5320848 153.702893,22.0879962 L153.702893,12.5178496 C153.702893,12.1262324 153.605169,11.5388065 153.483013,11.1716653 C153.483013,11.1716653 153.238702,10.437383 152.285889,10.437383 L152.237027,10.437383 C151.846129,10.437383 151.552956,10.1191939 151.552956,9.75205278 L151.552956,8.1611077 C151.552956,7.76949044 151.870561,7.47577751 152.237027,7.47577751 L152.408045,7.47577751 C152.798942,7.47577751 153.40972,7.50025358 153.800618,7.54920574 C153.800618,7.54920574 155.193191,7.69606221 155.730675,8.18558377 C156.341453,8.72405749 156.659057,9.65414846 156.659057,11.0003328 L156.659057,21.6719028 C156.659057,22.0635201 156.756781,22.650946 156.903368,23.0180871 C156.903368,23.0180871 157.489715,24.5845561 159.126598,24.5845561 L180.259504,24.5845561 C180.650401,24.5845561 180.943575,24.9027452 180.943575,25.2698863 L180.943575,26.8363553 C180.943575,27.2279726 180.62597,27.5216855 180.259504,27.5216855 L160.152705,27.5216855 C159.761807,27.5216855 159.15103,27.4972094 158.760132,27.4727334 C158.760132,27.4727334 157.489715,27.3748291 156.781212,27.0811161 C156.29259,26.8608314 155.755106,26.4936902 155.193191,25.9796926 C154.606844,26.5181663 154.06936,26.8853075 153.580738,27.1055922 C153.043254,27.350353 152.383614,27.4972094 151.552956,27.5216855 L151.552956,27.5216855 Z" id="Fill-13" fill="#444444"></path>
                <rect id="Rectangle-23" fill="#19D313" x="151.51591" y="0.975097656" width="4" height="4" rx="1"></rect>
            </g>
        </g>
    </g>
</svg>